<?xml version="1.0" encoding="utf-8"?>
<!-- Generator: Adobe Illustrator 15.1.0, SVG Export Plug-In . SVG Version: 6.00 Build 0)  -->
<!DOCTYPE svg PUBLIC "-//W3C//DTD SVG 1.1//EN" "http://www.w3.org/Graphics/SVG/1.1/DTD/svg11.dtd">
<svg version="1.1" id="Layer_1" xmlns="http://www.w3.org/2000/svg" xmlns:xlink="http://www.w3.org/1999/xlink" x="0px" y="0px"
	 width="533.956px" height="137.981px" viewBox="0 0 533.956 137.981" enable-background="new 0 0 533.956 137.981"
	 xml:space="preserve">
<polygon fill="#439539" points="110.333,128.25 112.025,128.25 113.341,112.929 111.279,112.929 111.484,110.573 118.271,110.573 
	118.057,112.929 116.367,112.929 115.063,128.25 117.113,128.25 116.917,130.608 110.135,130.608 "/>
<g>
	<defs>
		<rect id="SVGID_1_" width="533.956" height="137.981"/>
	</defs>
	<clipPath id="SVGID_2_">
		<use xlink:href="#SVGID_1_"  overflow="visible"/>
	</clipPath>
	<path clip-path="url(#SVGID_2_)" fill="#439539" d="M119.894,115.721h5.058c-0.19,2.288-0.365,3.921-0.917,6.304h0.061
		c1.536-4.808,4.051-6.578,6.635-6.578c2.339,0,3.059,1.716,3.059,3.663c0,1.033-0.119,2.146-0.222,3.022l-0.78,6.118h1.966
		l-0.2,2.357h-5.109c0.621-3.52,1.319-9.518,1.319-10.791c0-0.898-0.119-1.679-1.033-1.679c-2.631,0-5.238,5.829-5.869,10.373
		l-0.281,2.097h-2.943c0.314-1.924,0.478-3.922,0.648-5.898l0.578-6.636h-2.178L119.894,115.721z"/>
	<path clip-path="url(#SVGID_2_)" fill="#439539" d="M139.493,128.06c0.742,0.222,1.773,0.49,2.665,0.49
		c1.426,0,2.797-0.597,2.797-2.15c0-0.972-0.541-1.37-1.662-1.752l-2.65-0.861c-1.438-0.445-3.291-1.281-3.291-3.827
		c0-2.219,1.656-4.513,6.086-4.513c2.286,0,3.894,0.626,4.403,0.855l-0.111,3.714h-2.521l0.119-1.793
		c-0.607-0.292-1.283-0.436-2.286-0.436c-1.755,0-2.667,0.802-2.667,1.831c0,0.854,0.373,1.285,2.177,1.89l2.543,0.831
		c1.514,0.488,2.891,1.421,2.891,3.686c0,2.347-1.633,4.865-5.976,4.865c-2.344,0-3.943-0.451-5.267-0.896l0.112-3.817h2.638V128.06
		z"/>
	<path clip-path="url(#SVGID_2_)" fill="#439539" d="M148.928,135.442h1.721l1.544-17.368h-2.176l0.207-2.353h5.053
		c-0.259,2.02-0.449,3.747-0.83,6.048h0.064c0.6-1.952,1.971-6.322,6.176-6.322c3.12,0,3.689,3.334,3.689,5.491
		c0,5.37-3.149,9.833-8.009,9.833c-1.053,0-1.887-0.072-2.461-0.229l-0.398,4.9h2.097l-0.209,2.336h-6.669L148.928,135.442z
		 M159.857,118.138c-2.148,0-4.809,4.201-5.696,9.815c0.522,0.191,1.378,0.297,2.43,0.297c3.375,0,4.752-4.139,4.752-7.083
		C161.343,119.756,161.137,118.138,159.857,118.138"/>
	<path clip-path="url(#SVGID_2_)" fill="#439539" d="M166.562,115.721h5.093l-1.087,12.529h1.965l-0.199,2.357h-4.972l1.113-12.534
		h-2.122L166.562,115.721z M170.768,108.255c1.078,0,1.853,0.75,1.853,1.76c0,0.934-0.513,2.138-2.314,2.138
		c-1.402,0-1.921-0.972-1.921-1.771C168.386,108.96,169.364,108.255,170.768,108.255"/>
	<path clip-path="url(#SVGID_2_)" fill="#439539" d="M174.757,115.721h4.888c-0.161,1.95-0.398,3.921-0.634,5.756h0.058
		c0.771-3.086,2.065-6.03,5.12-6.03c0.542,0,1.091,0.053,1.372,0.114l-0.426,2.883c-0.222-0.053-0.549-0.141-0.847-0.141
		c-3.871,0-5.096,7.067-5.529,11.324l-0.084,0.98h-3.039c0.244-1.601,0.407-3.779,0.519-5.211l0.57-7.323h-2.169L174.757,115.721z"
		/>
	<path clip-path="url(#SVGID_2_)" fill="#439539" d="M187.382,115.721h5.099l-1.097,12.529h1.98l-0.209,2.357h-4.972l1.114-12.534
		h-2.114L187.382,115.721z M191.591,108.255c1.088,0,1.856,0.75,1.856,1.76c0,0.934-0.523,2.138-2.319,2.138
		c-1.399,0-1.92-0.972-1.92-1.771C189.208,108.96,190.181,108.255,191.591,108.255"/>
	<path clip-path="url(#SVGID_2_)" fill="#439539" d="M195.281,115.721h5.061c-0.201,2.288-0.372,3.921-0.915,6.304h0.056
		c1.552-4.808,4.065-6.578,6.637-6.578c2.35,0,3.063,1.716,3.063,3.663c0,1.033-0.116,2.146-0.228,3.022l-0.775,6.118h1.973
		l-0.195,2.357h-5.123c0.627-3.52,1.314-9.518,1.314-10.791c0-0.898-0.124-1.679-1.033-1.679c-2.624,0-5.228,5.829-5.865,10.373
		l-0.286,2.097h-2.941c0.312-1.924,0.479-3.922,0.655-5.898l0.571-6.636h-2.168L195.281,115.721z"/>
	<path clip-path="url(#SVGID_2_)" fill="#439539" d="M211.932,134.118c0.974,0.689,2.809,1.339,4.26,1.339
		c3.96,0,4.948-3.247,5.212-5.623l0.283-2.711c0.126-0.989,0.281-1.93,0.539-2.987h-0.049c-0.913,2.318-2.741,6.473-6.21,6.473
		c-2.941,0-3.83-2.747-3.83-5.337c0-3.675,1.627-9.824,8.838-9.824c1.345,0,2.32,0.251,3.4,0.685l1.068-0.059
		c-0.492,4.231-0.834,9.004-1.264,13.487c-0.461,4.925-1.778,8.422-7.631,8.422c-1.548,0-3.729-0.517-4.846-1.119L211.932,134.118z
		 M216.68,128.086c2.018,0,4.819-4.401,5.404-9.894c-0.365-0.184-0.969-0.405-1.91-0.405c-3.522,0-5.005,4.054-5.005,7.548
		C215.169,127.409,215.881,128.086,216.68,128.086"/>
	<path clip-path="url(#SVGID_2_)" fill="#439539" d="M236.251,128.25h1.677l1.329-15.321h-2.071l0.203-2.356h7.067
		c3.634,0,6.378,1.133,6.378,4.72c0,3.466-2.573,4.724-4.715,4.889v0.067c2.374,0,5.094,1.03,5.094,4.461
		c0,4.009-3.152,5.898-7.846,5.898h-7.32L236.251,128.25z M240.968,128.25h2.686c1.715,0,4.348-0.48,4.348-3.716
		c0-2.824-2.492-3.256-4.683-3.256h-1.721L240.968,128.25z M241.77,119.11h1.774c2.208,0,4.264-0.917,4.264-3.487
		c0-1.92-1.114-2.693-3.042-2.693h-2.476L241.77,119.11z"/>
	<path clip-path="url(#SVGID_2_)" fill="#439539" d="M253.2,115.721h5.337l-1.026,7.072c-0.24,1.578-0.375,2.635-0.375,3.584
		c0,0.993,0.406,1.709,1.21,1.709c1.8,0,4.821-4.463,5.853-12.365h2.938c-0.275,1.614-0.511,3.319-0.658,4.979l-0.623,7.551h2.027
		l-0.196,2.357h-4.834c0.114-1.859,0.574-4.33,0.972-6.473h-0.065c-1.107,3.325-3.018,6.636-6.393,6.636
		c-2.633,0-3.258-2.022-3.258-3.747c0-1.258,0.233-3.142,0.378-4.341l0.57-4.609h-2.065L253.2,115.721z"/>
	<path clip-path="url(#SVGID_2_)" fill="#439539" d="M272.595,128.06c0.737,0.222,1.775,0.49,2.669,0.49
		c1.419,0,2.796-0.597,2.796-2.15c0-0.972-0.55-1.37-1.671-1.752l-2.662-0.861c-1.423-0.445-3.274-1.281-3.274-3.827
		c0-2.219,1.657-4.513,6.09-4.513c2.275,0,3.894,0.626,4.391,0.855l-0.088,3.714h-2.537l0.107-1.793
		c-0.597-0.292-1.276-0.436-2.275-0.436c-1.739,0-2.662,0.802-2.662,1.831c0,0.854,0.371,1.285,2.176,1.89l2.56,0.831
		c1.496,0.488,2.872,1.421,2.872,3.686c0,2.347-1.625,4.865-5.988,4.865c-2.33,0-3.94-0.451-5.247-0.896l0.117-3.817h2.628V128.06z"
		/>
	<path clip-path="url(#SVGID_2_)" fill="#439539" d="M283.869,115.721h5.103l-1.094,12.529h1.98l-0.214,2.357h-4.968l1.12-12.534
		h-2.134L283.869,115.721z M288.08,108.255c1.083,0,1.867,0.75,1.867,1.76c0,0.934-0.528,2.138-2.322,2.138
		c-1.4,0-1.912-0.972-1.912-1.771C285.713,108.96,286.673,108.255,288.08,108.255"/>
	<path clip-path="url(#SVGID_2_)" fill="#439539" d="M292.207,115.721h5.075c-0.202,2.288-0.371,3.921-0.922,6.304h0.062
		c1.541-4.808,4.062-6.578,6.64-6.578c2.337,0,3.057,1.716,3.057,3.663c0,1.033-0.108,2.149-0.245,3.022l-0.754,6.118h1.966
		l-0.199,2.357h-5.124c0.643-3.52,1.33-9.518,1.33-10.791c0-0.898-0.114-1.679-1.029-1.679c-2.639,0-5.246,5.829-5.869,10.373
		l-0.287,2.097h-2.949c0.317-1.924,0.485-3.922,0.658-5.898l0.572-6.636h-2.168L292.207,115.721z"/>
	<path clip-path="url(#SVGID_2_)" fill="#439539" d="M319.381,129.849c-0.727,0.444-2.654,1.041-4.787,1.041
		c-3.817,0-5.83-2.34-5.83-6.154c0-4.146,2.099-9.289,7.757-9.289c2.157,0,4.28,1.063,4.28,3.453c0,4.724-6.548,5.748-8.839,5.955
		c0,2.053,0.853,3.518,3.645,3.518c1.179,0,2.872-0.512,4.18-1.25L319.381,129.849z M316.009,117.788
		c-2.816,0-3.799,2.943-4.047,5.063c2.799-0.481,5.806-1.288,5.806-3.58C317.768,118.507,317.247,117.788,316.009,117.788"/>
	<path clip-path="url(#SVGID_2_)" fill="#439539" d="M325.325,128.06c0.727,0.222,1.743,0.49,2.639,0.49
		c1.434,0,2.803-0.597,2.803-2.15c0-0.972-0.543-1.37-1.647-1.752l-2.67-0.861c-1.427-0.445-3.305-1.281-3.305-3.827
		c0-2.219,1.648-4.513,6.112-4.513c2.275,0,3.886,0.626,4.401,0.855l-0.122,3.714h-2.509l0.104-1.793
		c-0.597-0.292-1.285-0.436-2.291-0.436c-1.741,0-2.647,0.802-2.647,1.831c0,0.854,0.371,1.285,2.188,1.89l2.523,0.831
		c1.52,0.488,2.888,1.421,2.888,3.686c0,2.347-1.633,4.865-5.98,4.865c-2.338,0-3.94-0.451-5.258-0.896l0.116-3.817h2.655V128.06z"
		/>
	<path clip-path="url(#SVGID_2_)" fill="#439539" d="M338.914,128.06c0.753,0.222,1.774,0.49,2.661,0.49
		c1.427,0,2.804-0.597,2.804-2.15c0-0.972-0.527-1.37-1.663-1.752l-2.655-0.861c-1.426-0.445-3.273-1.281-3.273-3.827
		c0-2.219,1.648-4.513,6.09-4.513c2.266,0,3.886,0.626,4.394,0.855l-0.122,3.714h-2.506l0.108-1.793
		c-0.583-0.292-1.278-0.436-2.276-0.436c-1.763,0-2.677,0.802-2.677,1.831c0,0.854,0.378,1.285,2.18,1.89l2.563,0.831
		c1.487,0.488,2.871,1.421,2.871,3.686c0,2.347-1.633,4.865-5.989,4.865c-2.329,0-3.916-0.451-5.239-0.896l0.107-3.817h2.624V128.06
		z"/>
	<path clip-path="url(#SVGID_2_)" fill="#439539" d="M357.945,128.25h1.701l1.301-15.321h-2.054l0.195-2.356h6.902
		c3.313,0,6.716,1.04,6.716,5.21c0,4.917-3.289,6.877-7.522,6.877c-0.765,0-1.377-0.054-2.026-0.096l-0.486,5.687h2.188
		l-0.191,2.357h-6.919L357.945,128.25z M363.354,120.227c0.454,0.05,0.937,0.077,1.655,0.077c2.755,0,4.675-1.313,4.675-4.144
		c0-2.947-2.414-3.231-4.094-3.231h-1.609L363.354,120.227z"/>
	<path clip-path="url(#SVGID_2_)" fill="#439539" d="M383.471,129.849c-0.75,0.444-2.67,1.041-4.789,1.041
		c-3.82,0-5.844-2.34-5.844-6.154c0-4.146,2.116-9.289,7.771-9.289c2.142,0,4.272,1.063,4.272,3.453c0,4.724-6.563,5.748-8.84,5.955
		c0,2.053,0.862,3.518,3.639,3.518c1.209,0,2.88-0.512,4.188-1.25L383.471,129.849z M380.09,117.788
		c-2.815,0-3.791,2.943-4.048,5.063c2.793-0.481,5.799-1.288,5.799-3.58C381.841,118.507,381.319,117.788,380.09,117.788"/>
	<path clip-path="url(#SVGID_2_)" fill="#439539" d="M386.963,115.721h4.885c-0.166,1.95-0.388,3.921-0.621,5.756h0.055
		c0.78-3.086,2.064-6.03,5.119-6.03c0.552,0,1.087,0.053,1.374,0.114l-0.436,2.883c-0.214-0.053-0.531-0.141-0.842-0.141
		c-3.87,0-5.087,7.067-5.533,11.324l-0.077,0.98h-3.032c0.221-1.601,0.393-3.779,0.508-5.211l0.573-7.323h-2.168L386.963,115.721z"
		/>
	<path clip-path="url(#SVGID_2_)" fill="#439539" d="M399.569,115.721h2.041l0.039-0.475c0.316-4.146,1.919-6.755,6.375-6.755
		c0.784,0,2.207,0.115,2.873,0.398l-0.203,2.242c-0.554-0.157-1.205-0.295-1.985-0.295c-2.516,0-3.599,1.055-3.893,3.538
		l-0.165,1.346h3.461l-0.203,2.353h-3.427l-0.914,11.241c-0.294,3.689-0.779,8.666-6.291,8.666c-0.952,0-1.694-0.198-2.577-0.398
		l0.226-2.462c0.657,0.144,1.368,0.336,1.943,0.336c2.615,0,3.387-2.111,3.758-6.571l0.815-10.812h-2.084L399.569,115.721z"/>
	<path clip-path="url(#SVGID_2_)" fill="#439539" d="M415.873,115.447c2.584,0,5.775,1.55,5.775,6.601
		c0,6.203-3.431,8.843-7.214,8.843c-4.861,0-6.02-3.721-6.02-6.673C408.415,119.675,410.736,115.447,415.873,115.447
		 M414.533,128.373c3.282,0,3.924-3.916,3.924-6.433c0-1.289-0.378-3.985-2.947-3.985c-3.274,0-3.895,3.778-3.895,6.296
		C411.615,126.055,412.121,128.373,414.533,128.373"/>
	<path clip-path="url(#SVGID_2_)" fill="#439539" d="M423.51,115.721h4.885c-0.171,1.95-0.401,3.921-0.628,5.756h0.056
		c0.779-3.086,2.072-6.03,5.132-6.03c0.554,0,1.066,0.053,1.369,0.114l-0.437,2.883c-0.222-0.053-0.547-0.141-0.855-0.141
		c-3.864,0-5.087,7.067-5.527,11.324l-0.07,0.98h-3.039c0.222-1.601,0.394-3.779,0.516-5.211l0.573-7.323h-2.175L423.51,115.721z"/>
	<path clip-path="url(#SVGID_2_)" fill="#439539" d="M436.07,115.721h5.075c-0.214,2.288-0.363,3.921-0.914,6.304h0.043
		c1.545-4.808,4.039-6.578,6.405-6.578c2.903,0,3.019,2.627,3.019,3.885c0,0.454-0.085,1.205-0.18,1.436h0.064
		c0.394-1.544,2.397-5.32,5.802-5.32c2.346,0,3.071,1.716,3.071,3.776c0,0.736-0.076,1.681-0.161,2.339l-0.844,6.688h1.965
		l-0.206,2.357h-5.118c0.628-3.52,1.316-9.841,1.316-11.016c0-0.674-0.146-1.454-1.037-1.454c-2.142,0-4.968,5.286-5.595,10.514
		l-0.237,1.956h-2.934l0.94-7.437c0.225-1.663,0.296-2.67,0.296-3.461c0-0.72-0.185-1.572-1.076-1.572
		c-2.375,0-5.074,5.829-5.709,10.373l-0.295,2.097h-2.942c0.311-1.924,0.497-3.922,0.658-5.898l0.575-6.636h-2.178L436.07,115.721z"
		/>
	<path clip-path="url(#SVGID_2_)" fill="#439539" d="M474.956,130.608h-4.689c0.13-1.601,0.378-3.561,0.945-6.579h-0.085
		c-0.891,3.117-2.425,6.742-5.942,6.742c-3.091,0-3.917-2.597-3.917-5.553c0-2.957,1.276-9.771,8.168-9.771
		c1.421,0,2.586,0.313,3.733,0.658h1.213c-0.161,0.541-0.409,2.42-0.508,3.57l-0.735,8.575h2.027L474.956,130.608z M465.819,128.086
		c2.729,0,5.25-7.725,5.25-9.986c-0.425-0.146-1.074-0.313-1.854-0.313c-3.908,0-4.907,5.063-4.907,7.519
		C464.308,126.952,464.762,128.086,465.819,128.086"/>
	<path clip-path="url(#SVGID_2_)" fill="#439539" d="M477.503,115.721h5.06c-0.187,2.288-0.362,3.921-0.906,6.304h0.062
		c1.541-4.808,4.058-6.578,6.646-6.578c2.326,0,3.036,1.716,3.036,3.663c0,1.033-0.095,2.149-0.225,3.022l-0.764,6.118h1.957
		l-0.188,2.357h-5.121c0.631-3.52,1.33-9.518,1.33-10.791c0-0.898-0.125-1.679-1.047-1.679c-2.631,0-5.237,5.829-5.856,10.373
		l-0.286,2.097h-2.957c0.317-1.924,0.498-3.922,0.674-5.898l0.574-6.636h-2.191L477.503,115.721z"/>
	<path clip-path="url(#SVGID_2_)" fill="#439539" d="M504.401,129.979c-1.021,0.51-2.493,0.911-3.833,0.911
		c-4.199,0-6.337-2.395-6.337-6.613c0-6.629,3.863-8.83,7.722-8.83c1.663,0,2.743,0.313,3.584,0.562l-0.424,4.008h-2.51l0.104-2.062
		c-0.294-0.105-0.619-0.167-1.079-0.167c-2.906,0-4.199,2.802-4.199,5.949c0,2.717,0.968,4.636,3.729,4.636
		c1.209,0,2.532-0.551,3.5-1.063L504.401,129.979z"/>
	<path clip-path="url(#SVGID_2_)" fill="#439539" d="M517.65,129.849c-0.738,0.444-2.654,1.041-4.808,1.041
		c-3.799,0-5.841-2.34-5.841-6.154c0-4.146,2.135-9.289,7.783-9.289c2.146,0,4.266,1.063,4.266,3.453
		c0,4.724-6.541,5.748-8.824,5.955c0,2.053,0.845,3.518,3.668,3.518c1.147,0,2.834-0.512,4.149-1.25L517.65,129.849z
		 M514.261,117.788c-2.817,0-3.808,2.943-4.034,5.063c2.789-0.481,5.782-1.288,5.782-3.58
		C516.009,118.507,515.505,117.788,514.261,117.788"/>
	<path clip-path="url(#SVGID_2_)" fill="#006595" d="M108.417,13.553c4.385,0,8.594,0.104,12.889,0.104
		c4.662,0,9.346-0.104,14.025-0.104l-0.763,2.683l-6.487,3.34v24.151c0,15.933,0.28,25.673,0.473,26.719l8.301,3.433l-0.759,2.671
		c-4.965,0-10.023-0.184-15.077-0.184c-4.966,0-9.938,0.184-14.887,0.184l0.758-2.671l7.065-3.522
		c0.376-1.053,0.568-10.792,0.568-26.629V19.576l-6.959-3.34L108.417,13.553z"/>
	<path clip-path="url(#SVGID_2_)" fill="#006595" d="M145.095,41.623l-4.777-2.392l0.858-2.18c1.536-1.253,14.698-4.31,17.09-4.211
		l-0.764,6.976l0.187,0.185c5.054-3.904,10.118-7.161,14.22-7.161c10.497,0,13.652,8.209,13.652,15.077v21.29
		c0,1.047,0.665,1.717,1.907,2.281l4.864,2.391l-0.667,2.671c-4.392,0-8.594-0.099-12.883-0.099c-3.626,0-7.345,0.099-11.072,0.099
		l0.479-2.671l3.818-3.055c0.193-2.868,0.476-9.343,0.476-21.374c0-5.723-2.58-8.69-7.064-8.69c-2.289,0-4.674,0.959-7.153,2.967
		c0,7.533,0,25.369,0.183,27.097l4.681,3.055l-0.575,2.671c-3.716-0.099-7.444-0.099-11.073-0.099
		c-4.202,0-8.303,0.099-12.497,0.099l0.671-2.671l5.147-3.055c0.19-1.24,0.292-10.497,0.292-21.374V41.623z"/>
	<path clip-path="url(#SVGID_2_)" fill="#006595" d="M211.332,32.84c2.111,0,4.869,0.593,7.366,2.283
		c1.71-1.14,3.71-2.182,5.71-2.863l1.06,0.492c-0.39,4.576-1.538,11.068-2.393,13.252l-1.717,0.586
		c-1.34-1.917-2.767-4.978-3.628-7.451c-0.571-0.47-2.289-1.813-5.627-1.813c-4.202,0-6.003,2.864-6.003,4.877
		c0,1.711,1.128,3.337,3.71,4.58c4.866,2.287,7.829,3.813,11.455,5.813c5.432,2.957,6.865,6.486,6.865,10.503
		c0,12.021-12.216,14.607-19.175,14.607c-5.823,0-11.842-2.212-14.322-3.827c0.098-2.954,1.72-10.39,2.387-12.213l1.521-0.66
		c1.728,2.86,4.302,8.58,6.019,12.019c1.422,0.567,3.05,0.955,5.054,0.955c4.205,0,7.169-2.771,7.169-5.816
		c0-1.919-0.768-3.244-3.34-4.601c-2.394-1.326-5.157-2.755-8.317-4.285c-5.911-2.857-9.533-6.49-9.533-12.687
		c0-6.879,5.15-13.75,15.645-13.75H211.332z"/>
	<path clip-path="url(#SVGID_2_)" fill="#006595" d="M247.754,38.377h0.29c6.49-4.099,9.834-5.538,11.829-5.538
		c7.813,0,18.703,7.07,18.703,20.329c0,17.655-13.854,24.537-22.992,24.537c-1.243,0-3.718-0.873-7.441-2.678l-0.189,0.092
		c0,5.155,0.189,11.834,0.376,15.459l8.779,3.351l-0.666,2.753c-4.779,0-9.739-0.084-14.498-0.084
		c-4.301,0-8.594,0.084-12.986,0.084l0.954-2.96l4.667-2.857c0.112-2.1,0.389-11.252,0.389-24.997V40.855l-5.257-3.332l0.682-2.291
		c1.228-0.391,12.505-2.292,17.65-2.393L247.754,38.377z M248.144,71.121c1.233,0.562,2.568,0.847,4.293,0.847
		c6.478,0,12.682-5.723,12.682-16.222c0-10.206-6.581-15.172-12.5-15.172c-1.329,0-2.671,0.282-4.574,1.146L248.144,71.121z"/>
	<path clip-path="url(#SVGID_2_)" fill="#006595" d="M296.647,55.182c-0.1,0.564-0.1,0.751-0.1,1.239
		c-0.088,8.96,5.546,15.169,13.279,15.169c0.842,0,1.514-0.103,2.383-0.294c2.957-2.375,7.351-5.341,9.532-6.486l0.596,1.632
		c-0.674,3.518-5.553,8.295-7.366,9.344c-1.718,0.665-6.112,1.92-9.915,1.92c-13.37,0-22.159-8.306-22.159-21.959
		c0-13.165,10.228-22.906,22.062-22.906c10.292,0,18.208,6.299,18.208,17.46c0,1.531-0.371,2.673-1.021,3.061
		c-0.776,0.484-4.405,1.821-10.132,1.821H296.647z M309.827,50.883c0.275-0.666,0.577-1.813,0.577-3.048
		c0-6.594-2.11-10.985-6.042-10.985c-4.938,0-7.715,8.496-7.814,14.033H309.827z"/>
	<path clip-path="url(#SVGID_2_)" fill="#006595" d="M327.708,36.662c1.449-0.766,12.127-3.635,16.315-3.822
		c0.493,1.828,1.052,6.49,0.952,8.016h0.306c3.037-4.572,7.523-8.016,12.197-8.016c2.594,0,4.318,0.767,5.442,2.002
		c-0.188,2.767-2.849,10.019-4.762,13.264l-1.625,0.485c-1.044-1.619-2.098-3.051-4.101-6.968c-0.394-0.285-0.772-0.382-1.438-0.382
		c-1.988,0-4.573,2.095-5.714,4.587v24.903l9.535,3.06l-0.658,2.66c-5.247,0-10.511-0.085-15.762-0.085
		c-4.095,0-8.096,0.085-12.204,0.085l0.303-2.66l5.225-3.06c0.394-9.742,0.47-25.288,0.47-29.205l-5.136-2.574L327.708,36.662z"/>
	<path clip-path="url(#SVGID_2_)" fill="#006595" d="M366.565,35.896c1.423-0.475,10.483-2.58,17.643-3.056v19.842
		c0,10.713,0.092,16.054,0.207,18.142l6.379,2.967l-0.573,2.759c-4.468,0-8.211-0.099-12.676-0.099
		c-4.025,0-8.325,0.099-12.119,0.099l0.475-2.759l5.052-2.967c0.092-3.345,0.184-10.778,0.184-18.318v-11.65l-5.339-2.669
		L366.565,35.896z"/>
	<path clip-path="url(#SVGID_2_)" fill="#006595" d="M460.377,34.153c-2.113,0-4.295-0.093-6.498-0.093l-0.976,2.577l3.745,3.247
		c-1.029,3.827-4.094,13.089-6.162,19.334c-3.398-8.181-7.551-14.805-9.395-19.821l2.494-2.664l0.471-2.673
		c-3.442,0-6.865,0.093-10.301,0.093c-4.114,0-23.314-0.079-23.314-0.079l0.486-13.926c-1.246,0-6.307,1.057-8.304,2.296
		c-1.626,1.811-4.394,9.167-5.066,11.63h-4.773l-1.42,3.726l5.913,1.622v23.972c0,5.701,0.566,7.902,2.111,9.924
		c2.268,2.848,6.093,4.387,11.26,4.387c5.998,0,11.152-2.773,13.25-6.409v-3.34l-0.389-0.192c-1.616,1.241-4.18,2.49-7.729,2.49
		c-1.71,0-3.53-0.67-4.482-1.44c-0.479-0.562-0.945-1.52-0.945-3.896c0-10.703,0.088-19.28,0.088-25.496l10.739-1.859
		c3.033-0.075,5.316,2.135,5.891,3.268c4.009,8.585,14.4,34.081,15.539,36.451c-0.664,1.913-2.19,4.966-3.043,6.687
		c-4.48,3.715-9.161,8.314-9.842,9.834c0.772,1.713,4.884,4.861,8.977,4.861c0.865,0,1.617-0.092,2.196-0.384
		c0.664-2.765,1.155-5.35,2.688-11.634c6.195-14.697,16.305-40.472,19.444-46.479c2.021-1.143,3.916-2.385,5.829-3.434l0.757-2.673
		C466.848,34.061,463.803,34.153,460.377,34.153"/>
	<path clip-path="url(#SVGID_2_)" fill="#006595" d="M383.891,19.448c0,4.092-3.136,7.418-6.972,7.418
		c-3.841,0-6.966-3.326-6.966-7.418c0-4.097,3.125-7.419,6.966-7.419C380.755,12.029,383.891,15.351,383.891,19.448"/>
	<path clip-path="url(#SVGID_2_)" fill="#439539" d="M61.037,27.72c-3.83,0.148-5.985-0.91-8.611-2.563l0.571,4.571
		c2.538,1.36,5.477,1.343,6.847,1.212v-0.012c-0.128,1.357-0.083,4.282,1.283,6.802l4.63,0.557c-1.683-2.583-2.836-4.75-2.693-8.568
		C63.112,28.387,62.412,27.661,61.037,27.72"/>
	<path clip-path="url(#SVGID_2_)" fill="#439539" d="M67.923,22.896c-5.182,0.708-10.918-0.732-16.333-4.641l-0.721-5.78
		c5.3,3.642,10.078,6.692,17.85,6.392c2.541-0.1,3.365,0.717,3.268,3.226c-0.3,7.721,2.777,12.457,6.438,17.724l-5.721-0.678
		c-3.952-5.364-5.467-11.078-4.763-16.216L67.923,22.896z"/>
	<path clip-path="url(#SVGID_2_)" fill="#439539" d="M76.565,14.322c-4.672,0.974-14.9,0.523-26.505-8.375
		C49.604,1.687,49.328,0,49.328,0C54.48,4.302,64.78,11.158,76.584,10.229c3.648-0.271,4.395,0.452,4.1,4.084
		c-0.925,11.715,5.98,21.902,10.333,27.01c0,0-1.888-0.258-6.026-0.717c-8.973-11.504-9.382-21.617-8.407-26.265L76.565,14.322z"/>
	<path clip-path="url(#SVGID_2_)" fill="#439539" d="M63.074,60.554c-0.135-3.815,0.916-5.96,2.584-8.554l-4.599,0.574
		c-1.371,2.504-1.349,5.434-1.215,6.785c-1.369-0.115-4.314-0.089-6.859,1.265l-0.559,4.595c2.615-1.663,4.783-2.803,8.633-2.675
		C62.422,62.607,63.128,61.904,63.074,60.554"/>
	<path clip-path="url(#SVGID_2_)" fill="#439539" d="M67.937,67.369c-0.705-5.146,0.738-10.832,4.693-16.191l5.824-0.716
		c-3.664,5.266-6.748,9.994-6.439,17.705c0.097,2.521-0.729,3.321-3.263,3.24c-7.772-0.315-12.554,2.738-17.863,6.367l0.679-5.655
		c5.412-3.933,11.171-5.421,16.355-4.718L67.937,67.369z"/>
	<path clip-path="url(#SVGID_2_)" fill="#439539" d="M76.584,75.938c-0.97-4.642-0.527-14.773,8.453-26.27
		c4.299-0.47,6.001-0.742,6.001-0.742C86.685,54.021,79.764,64.252,80.7,75.959c0.287,3.611-0.427,4.347-4.108,4.063
		c-11.807-0.926-22.085,5.929-27.225,10.242c0,0,0.252-1.874,0.72-5.975c11.61-8.896,21.806-9.302,26.478-8.331L76.584,75.938z"/>
	<path clip-path="url(#SVGID_2_)" fill="#439539" d="M29.981,62.572c3.852-0.156,6,0.892,8.611,2.559l-0.566-4.567
		c-2.543-1.36-5.484-1.34-6.844-1.21c0.128-1.35,0.08-4.278-1.287-6.799l-4.625-0.556c1.661,2.587,2.825,4.751,2.69,8.565
		C27.905,61.917,28.614,62.612,29.981,62.572"/>
	<path clip-path="url(#SVGID_2_)" fill="#439539" d="M23.106,67.388c5.179-0.69,10.914,0.729,16.328,4.657l0.726,5.771
		c-5.307-3.642-10.095-6.695-17.865-6.396c-2.539,0.098-3.361-0.717-3.256-3.235c0.302-7.716-2.783-12.446-6.445-17.719l5.725,0.684
		c3.946,5.371,5.467,11.072,4.757,16.213L23.106,67.388z"/>
	<path clip-path="url(#SVGID_2_)" fill="#439539" d="M14.459,75.96c4.688-0.972,14.902-0.52,26.498,8.38
		c0.481,4.265,0.732,5.925,0.732,5.925c-5.149-4.299-15.438-11.145-27.248-10.228c-3.645,0.291-4.391-0.425-4.113-4.077
		c0.937-11.706-5.974-21.904-10.325-26.998c0,0,1.897,0.248,6.026,0.721c8.98,11.508,9.384,21.613,8.412,26.254L14.459,75.96z"/>
	<path clip-path="url(#SVGID_2_)" fill="#439539" d="M27.946,29.74c0.142,3.811-0.919,5.955-2.58,8.542l4.601-0.556
		c1.374-2.523,1.343-5.453,1.215-6.799c1.359,0.128,4.305,0.083,6.848-1.271l0.575-4.583c-2.621,1.653-4.79,2.802-8.638,2.651
		C28.596,27.688,27.891,28.386,27.946,29.74"/>
	<path clip-path="url(#SVGID_2_)" fill="#439539" d="M23.084,22.923c0.702,5.138-0.739,10.829-4.684,16.189l-5.823,0.727
		c3.662-5.265,6.745-9.999,6.44-17.718c-0.108-2.516,0.713-3.329,3.252-3.237c7.787,0.296,12.558-2.744,17.861-6.379l-0.673,5.673
		c-5.409,3.915-11.172,5.425-16.349,4.718L23.084,22.923z"/>
	<path clip-path="url(#SVGID_2_)" fill="#439539" d="M14.439,14.34c0.974,4.649,0.522,14.778-8.45,26.283
		C1.685,41.091,0,41.361,0,41.361c4.341-5.1,11.252-15.32,10.322-27.029c-0.285-3.621,0.44-4.362,4.109-4.076
		c11.812,0.922,22.086-5.937,27.228-10.24c0,0-0.243,1.882-0.73,5.965c-11.603,8.915-21.797,9.315-26.47,8.359H14.439z"/>
	<path clip-path="url(#SVGID_2_)" fill="#006595" d="M457.456,73.837c0-3.976,2.756-5.869,5.596-5.869
		c2.819,0,5.596,1.893,5.596,5.869c0,3.978-2.776,5.891-5.596,5.891C460.212,79.728,457.456,77.815,457.456,73.837 M467.595,73.816
		c0-3.028-1.893-4.9-4.543-4.9c-2.672,0-4.564,1.872-4.564,4.9c0,3.073,1.893,4.945,4.564,4.945
		C465.702,78.761,467.595,76.889,467.595,73.816 M461.116,70.83h1.894c1.304,0,1.998,0.778,1.998,1.788
		c0,0.8-0.442,1.346-1.072,1.578c0.126,0.105,0.211,0.231,0.294,0.399l1.095,2.166h-1.2l-0.925-1.935
		c-0.147-0.295-0.295-0.421-0.525-0.421h-0.441v2.355h-1.116V70.83z M462.988,73.502c0.547,0,0.8-0.317,0.8-0.864
		c0-0.546-0.211-0.862-0.8-0.862h-0.756v1.727H462.988z"/>
	<path clip-path="url(#SVGID_2_)" fill="#439539" d="M522.765,117.154c0-3.976,2.756-5.868,5.595-5.868
		c2.82,0,5.597,1.893,5.597,5.868c0,3.977-2.776,5.891-5.597,5.891C525.521,123.044,522.765,121.13,522.765,117.154
		 M532.902,117.132c0-3.028-1.892-4.9-4.543-4.9c-2.671,0-4.563,1.872-4.563,4.9c0,3.073,1.893,4.945,4.563,4.945
		C531.011,122.078,532.902,120.206,532.902,117.132 M526.425,114.146h1.894c1.304,0,1.998,0.778,1.998,1.788
		c0,0.8-0.442,1.346-1.072,1.578c0.126,0.105,0.211,0.231,0.294,0.399l1.095,2.166h-1.2l-0.925-1.935
		c-0.148-0.295-0.295-0.421-0.525-0.421h-0.441v2.355h-1.116V114.146z M528.297,116.819c0.547,0,0.8-0.317,0.8-0.864
		c0-0.546-0.211-0.862-0.8-0.862h-0.756v1.727H528.297z"/>
</g>
</svg>
